<svg width="16" height="16" viewBox="0 0 16 16" fill="none" xmlns="http://www.w3.org/2000/svg">
<path d="M0.712402 6.41553C0.712402 3.06836 3.42236 0.358398 6.76221 0.358398C10.1021 0.358398 12.812 3.06836 12.812 6.41553C12.812 7.66064 12.4312 8.81055 11.772 9.75537L14.9287 12.9268C15.1631 13.1611 15.2876 13.4761 15.2876 13.813C15.2876 14.5161 14.7603 15.0654 14.0425 15.0654C13.7056 15.0654 13.3833 14.9482 13.1416 14.7065L9.95557 11.5205C9.04004 12.1138 7.94873 12.4653 6.76221 12.4653C3.42236 12.4653 0.712402 9.75537 0.712402 6.41553ZM2.44092 6.41553C2.44092 8.7959 4.38184 10.7368 6.76221 10.7368C9.1499 10.7368 11.0835 8.7959 11.0835 6.41553C11.0835 4.02783 9.1499 2.09424 6.76221 2.09424C4.38184 2.09424 2.44092 4.02783 2.44092 6.41553Z" fill="#767676"/>
</svg>
